<?xml version="1.0" encoding="UTF-8" standalone="no"?>
<!-- Created with Inkscape (http://www.inkscape.org/) -->

<svg
   xmlns:dc="http://purl.org/dc/elements/1.1/"
   xmlns:cc="http://creativecommons.org/ns#"
   xmlns:rdf="http://www.w3.org/1999/02/22-rdf-syntax-ns#"
   xmlns:svg="http://www.w3.org/2000/svg"
   xmlns="http://www.w3.org/2000/svg"
   xmlns:sodipodi="http://sodipodi.sourceforge.net/DTD/sodipodi-0.dtd"
   xmlns:inkscape="http://www.inkscape.org/namespaces/inkscape"
   width="50mm"
   height="50mm"
   viewBox="0 0 50 50"
   version="1.1"
   id="svg4295"
   inkscape:version="0.92.4 (5da689c313, 2019-01-14)"
   sodipodi:docname="logo.svg">
  <defs
     id="defs4289" />
  <sodipodi:namedview
     id="base"
     pagecolor="#ffffff"
     bordercolor="#666666"
     borderopacity="1.0"
     inkscape:pageopacity="0.0"
     inkscape:pageshadow="2"
     inkscape:zoom="3.959798"
     inkscape:cx="124.62247"
     inkscape:cy="86.264347"
     inkscape:document-units="mm"
     inkscape:current-layer="layer1"
     showgrid="false"
     inkscape:window-width="3840"
     inkscape:window-height="2050"
     inkscape:window-x="-12"
     inkscape:window-y="-12"
     inkscape:window-maximized="1"
     fit-margin-top="0"
     fit-margin-left="0"
     fit-margin-right="0"
     fit-margin-bottom="0" />
  <metadata
     id="metadata4292">
    <rdf:RDF>
      <cc:Work
         rdf:about="">
        <dc:format>image/svg+xml</dc:format>
        <dc:type
           rdf:resource="http://purl.org/dc/dcmitype/StillImage" />
        <dc:title></dc:title>
      </cc:Work>
    </rdf:RDF>
  </metadata>
  <g
     inkscape:label="Layer 1"
     inkscape:groupmode="layer"
     id="layer1"
     transform="translate(-109.43341,-108.5679)">
    <g
       id="g4865"
       transform="translate(0.62983862,-2.4142426)">
      <path
         inkscape:export-ydpi="96"
         inkscape:export-xdpi="96"
         inkscape:connector-curvature="0"
         id="path10147-8"
         d="m 144.22659,113.41079 c -4.0769,0.039 -7.49083,2.64445 -10.40821,5.21093 -3.56732,-3.58913 -8.64234,-6.13048 -13.79297,-4.91992 -5.83932,0.77858 -10.08329,6.18254 -10.42578,11.90039 -0.56456,3.25025 0.37861,6.56279 1.7793,9.48047 -1.92932,5.11703 -2.4389,11.73383 1.3418,16.14453 3.52633,3.49853 9.11018,2.55288 13.1875,0.65039 2.59676,2.03611 4.39741,5.20944 7.39062,6.66407 2.59825,0.33703 3.93671,-2.65758 5.74805,-4.00391 5.22851,-5.65934 11.00989,-10.85545 15.75586,-16.93359 4.54965,-6.1185 4.80809,-15.8537 -1.16408,-21.13868 -2.57515,-2.23514 -6.05327,-3.15324 -9.41209,-3.05468 z"
         style="fill:#000000;fill-opacity:1;stroke-width:0.12927034" />
      <path
         inkscape:export-ydpi="96"
         inkscape:export-xdpi="96"
         inkscape:connector-curvature="0"
         d="m 142.40098,115.43269 c 0.43364,-0.19758 0.41854,-0.36707 -0.0327,-0.36707 -0.19908,0 -0.41722,-0.0521 -0.48477,-0.11576 -0.0724,-0.0683 -0.25537,-0.0645 -0.44598,0.009 l -0.32317,0.12503 0.30517,0.24927 c 0.35338,0.28863 0.52722,0.30621 0.98145,0.0992 z m 11.57578,2.89055 c 0,-0.1338 -0.27987,-0.41367 -0.41367,-0.41367 -0.0569,0 -0.10342,0.11635 -0.10342,0.25854 0,0.17236 0.0862,0.25854 0.25855,0.25854 0.14219,0 0.25854,-0.0465 0.25854,-0.10342 z m 1.74515,2.55955 c -0.11031,-0.2133 -0.26051,-0.38781 -0.33381,-0.38781 -0.0733,0 -0.0302,0.17451 0.0958,0.38781 0.12601,0.2133 0.27621,0.38781 0.33381,0.38781 0.0576,0 0.0145,-0.17451 -0.0958,-0.38781 z m -2.47718,0.61231 c -0.0509,-0.0823 -0.13053,-0.0195 -0.1944,0.15315 -0.0595,0.16092 -0.0695,0.35533 -0.0221,0.43201 0.0509,0.0823 0.13053,0.0195 0.1944,-0.15314 0.0595,-0.16092 0.0695,-0.35533 0.0221,-0.43202 z m 3.24356,6.03588 c 0.13016,-0.13016 0.20315,-0.14769 0.20315,-0.0488 0,0.11133 0.0586,0.10572 0.21023,-0.0201 0.37055,-0.30753 0.0729,-2.95384 -0.55631,-4.94641 -0.23692,-0.75022 -0.3592,-0.97925 -0.46588,-0.87257 -0.21462,0.21461 -0.35148,0.17584 -0.35148,-0.0996 0,-0.13432 -0.10838,-0.37807 -0.24084,-0.54165 l -0.24085,-0.29744 -0.15151,0.28311 c -0.0833,0.15571 -0.23673,0.28311 -0.34088,0.28311 -0.10414,0 -0.18935,0.0617 -0.18935,0.13703 0,0.0754 -0.2036,0.40368 -0.45245,0.72958 -0.49737,0.65138 -0.6136,1.42413 -0.25854,1.71881 0.10665,0.0885 0.19391,0.24663 0.19391,0.35137 0,0.10475 0.0838,0.34486 0.18615,0.53357 0.10239,0.18872 0.22025,0.55536 0.26193,0.81478 0.0851,0.52945 0.5092,1.14422 0.78937,1.14422 0.10148,0 0.18452,0.0639 0.18452,0.14204 0,0.16044 0.7458,0.89213 0.90933,0.89213 0.0585,0 0.19778,-0.0914 0.3095,-0.20314 z m -32.29508,0.2678 c -0.13489,-0.1021 -0.29581,-0.15441 -0.35759,-0.11623 -0.1865,0.11527 0.0173,0.31038 0.31964,0.30599 0.27391,-0.004 0.27516,-0.0101 0.038,-0.18976 z m 5.73927,1.22804 c 0,-0.0711 -0.0907,-0.12926 -0.20154,-0.12926 -0.11085,0 -0.16558,0.0582 -0.12164,0.12926 0.0439,0.0711 0.13463,0.12927 0.20153,0.12927 0.0669,0 0.12164,-0.0582 0.12164,-0.12927 z m 23.26866,-0.77562 c 0,-0.0711 0.0616,-0.12927 0.13689,-0.12927 0.0753,0 0.10095,0.0582 0.057,0.12927 -0.0439,0.0711 -0.10554,0.12927 -0.13689,0.12927 -0.0314,0 -0.057,-0.0582 -0.057,-0.12927 z m -0.68919,0.61403 c 0.10689,-0.56159 0.13573,-0.57675 0.3215,-0.16903 0.13128,0.28815 0.12648,0.36976 -0.0274,0.46717 -0.31609,0.19999 -0.37707,0.13815 -0.29402,-0.29814 z m 1.08609,1.47129 c -0.15918,-0.29744 -0.0311,-0.45476 0.20836,-0.25599 0.24041,0.19952 0.37613,0.0345 0.17295,-0.21032 -0.13495,-0.1626 -0.12729,-0.19703 0.0438,-0.19703 0.2223,0 0.42096,0.54241 0.28137,0.76827 -0.13637,0.22067 -0.56635,0.1568 -0.70643,-0.10493 z m -0.46154,1.40498 c 0.0439,-0.0711 0.13807,-0.12927 0.20917,-0.12927 0.0711,0 0.0933,0.0582 0.0494,0.12927 -0.0439,0.0711 -0.13807,0.12927 -0.20917,0.12927 -0.0711,0 -0.0933,-0.0582 -0.0494,-0.12927 z m 0.80984,5.06034 c 0.50452,-0.31181 2.40429,-4.2434 2.67576,-5.53752 0.0943,-0.44935 -0.11922,-1.0033 -0.33522,-0.86981 -0.0732,0.0453 -0.5334,-0.33185 -1.02271,-0.83795 -0.48932,-0.50609 -1.03734,-0.97631 -1.21781,-1.04493 -0.20031,-0.0762 -0.32814,-0.22544 -0.32814,-0.38318 0,-0.16172 -0.15722,-0.33806 -0.42013,-0.47124 -0.23107,-0.11704 -0.51976,-0.30011 -0.64154,-0.4068 -0.12177,-0.1067 -0.30707,-0.16113 -0.41178,-0.12094 -0.1047,0.0402 -0.21329,0.004 -0.2413,-0.0798 -0.0377,-0.11309 -0.14906,-0.1042 -0.42848,0.0342 -0.20765,0.10287 -0.46004,0.18968 -0.56086,0.19293 -0.33292,0.0107 -0.27448,0.25928 0.12271,0.52189 0.3709,0.24523 0.38703,0.29183 0.31336,0.9049 -0.0427,0.35549 -0.0218,0.89175 0.0464,1.19168 0.1097,0.48238 0.0959,0.55428 -0.11985,0.62275 -0.30912,0.0981 -0.30498,0.29772 0.0147,0.70634 0.30487,0.38976 0.32388,0.59361 0.0646,0.6931 -0.11995,0.046 -0.19391,0.24267 -0.19391,0.51556 0,0.41413 0.0352,0.45002 0.57433,0.58578 0.72424,0.18236 0.71838,0.18276 0.71838,-0.0493 0,-0.10665 0.0812,-0.19391 0.18037,-0.19391 0.15082,0 0.14552,0.13057 -0.0323,0.79693 -0.16019,0.60023 -0.17441,0.80976 -0.0576,0.84887 0.25272,0.0846 0.81442,0.56082 0.81442,0.69045 0,0.0659 -0.2047,0.11988 -0.45491,0.11988 -0.42965,0 -0.45042,0.0197 -0.37417,0.35549 0.0444,0.19552 0.19331,0.45399 0.33088,0.57437 0.24695,0.21607 0.24677,0.22067 -0.0136,0.36004 -0.14508,0.0776 -0.26378,0.18809 -0.26378,0.24542 0,0.12667 1.06606,0.156 1.26228,0.0347 z m -22.22096,-0.24379 c 0.4046,-0.14157 0.84916,-0.17815 1.56703,-0.12895 l 1.00219,0.0687 0.15993,-1.18239 c 0.088,-0.65032 0.299,-1.73369 0.46898,-2.4075 0.16998,-0.67381 0.30905,-1.25803 0.30905,-1.29827 0,-0.0403 -0.37832,0.29597 -0.8407,0.74712 -1.41595,1.38156 -2.23279,1.48933 -2.80387,0.36991 -0.26132,-0.51223 -0.27353,-0.5193 -0.38346,-0.22211 -0.22209,0.60037 -0.49643,2.51742 -0.49643,3.469 0,0.86932 0.0227,0.95717 0.22622,0.87428 0.12442,-0.0507 0.4804,-0.18107 0.79106,-0.28978 z m -4.24904,-2.43268 c 0,-0.11084 0.0582,-0.16558 0.12928,-0.12163 0.0711,0.0439 0.12926,0.13463 0.12926,0.20153 0,0.0669 -0.0582,0.12164 -0.12926,0.12164 -0.0711,0 -0.12928,-0.0907 -0.12928,-0.20154 z m 4.77069,5.85241 c 0.25662,-0.30986 0.2779,-0.40923 0.15227,-0.71099 -0.13924,-0.33442 -0.64606,-0.67396 -1.00599,-0.67396 -0.0925,0 -0.16813,-0.13641 -0.16813,-0.30314 0,-0.36167 -0.43142,-0.79155 -0.69346,-0.691 -0.13321,0.0511 -0.21126,-0.0637 -0.27493,-0.40445 -0.0489,-0.26171 -0.149,-0.54855 -0.22244,-0.63742 -0.0973,-0.11774 -0.0766,-0.16159 0.0762,-0.16159 0.16677,0 0.20984,-0.13902 0.21023,-0.67867 4.8e-4,-0.95915 0.31783,-2.79601 0.65914,-3.81777 l 0.29004,-0.86828 0.29285,0.64636 c 0.16107,0.35549 0.29642,0.70892 0.30079,0.7854 0.0164,0.28652 0.62686,0.72733 0.89116,0.64344 0.4779,-0.15168 0.92655,-0.5987 0.92655,-0.92318 0,-0.17371 0.0722,-0.54708 0.16038,-0.82972 0.12472,-0.39958 0.21106,-0.49779 0.38821,-0.44156 0.1253,0.0398 0.31906,-0.0189 0.43057,-0.13044 0.11152,-0.11151 0.31493,-0.20274 0.45205,-0.20274 0.13712,0 0.24931,-0.0873 0.24931,-0.1939 0,-0.10666 0.1121,-0.19391 0.24913,-0.19391 0.13702,0 0.41333,-0.19304 0.61403,-0.42899 0.2007,-0.23594 0.54924,-0.55649 0.77455,-0.71232 0.27066,-0.1872 0.65868,-0.75435 1.1437,-1.67165 0.97219,-1.8387 1.63124,-2.74058 2.85791,-3.91091 1.20109,-1.14592 2.28094,-1.87633 3.75653,-2.54091 0.59128,-0.26629 1.07505,-0.53172 1.07505,-0.58984 0,-0.0581 -0.16937,-0.13953 -0.37636,-0.18093 -0.43864,-0.0877 -0.52782,-0.30039 -0.60273,-1.43719 -0.0431,-0.65406 -0.0165,-0.80794 0.13975,-0.80794 0.12018,0 0.19299,0.12313 0.19299,0.3264 0,0.25706 0.08,0.34241 0.37635,0.40168 0.20701,0.0414 0.40191,0.17295 0.43313,0.29233 0.0312,0.11937 0.26905,0.28221 0.52853,0.36184 0.52757,0.16192 0.61831,0.0641 0.18919,-0.20383 l -0.28258,-0.17648 0.34722,-0.18192 c 0.36877,-0.19323 0.48872,-0.51418 0.1425,-0.38132 -0.12994,0.0499 -0.18505,0.0195 -0.15087,-0.0831 0.0923,-0.27727 0.45765,-0.25711 0.54887,0.0303 0.0658,0.20723 0.15233,0.25096 0.36654,0.1852 0.39541,-0.12139 0.40502,-0.14274 0.23357,-0.51903 -0.11156,-0.24482 -0.19677,-0.30099 -0.31186,-0.20555 -0.2279,0.18901 -0.8344,-0.37032 -1.03276,-0.95244 -0.15528,-0.45569 -0.1805,-0.47028 -0.89704,-0.51914 -0.82804,-0.0565 -0.99652,0.0563 -0.60858,0.40742 0.24996,0.22621 0.2515,0.24375 0.0293,0.33137 -0.12906,0.0509 -0.44543,0.0966 -0.70302,0.10161 -0.45906,0.009 -0.46805,-4.8e-4 -0.45245,-0.47373 0.0187,-0.56535 -0.29484,-0.71965 -0.70604,-0.34751 -0.2397,0.21692 -0.2652,0.2133 -0.6033,-0.0856 -0.19415,-0.17167 -0.39143,-0.36447 -0.43838,-0.42846 -0.047,-0.064 -0.24565,0.01 -0.44156,0.16386 -0.21209,0.16683 -0.4521,0.24974 -0.59327,0.20494 -0.49705,-0.15776 -0.49584,0.10299 0.003,0.58685 0.28056,0.27227 0.52991,0.59452 0.55412,0.71609 0.0242,0.12157 0.2469,0.28672 0.49488,0.36698 0.51102,0.16541 0.70609,0.59839 0.2696,0.59839 -0.14741,0 -0.26802,0.0582 -0.26802,0.12927 0,0.0711 -0.0873,0.12926 -0.19391,0.12926 -0.10664,0 -0.1939,-0.11371 -0.1939,-0.25268 0,-0.19246 -0.11553,-0.27058 -0.48477,-0.32776 -0.26661,-0.0413 -0.79986,-0.13119 -1.18499,-0.19977 -0.38512,-0.0686 -0.83892,-0.12468 -1.00844,-0.12468 -0.41736,0 -1.19848,0.85804 -1.1993,1.31739 -2.6e-4,0.19133 -0.0589,0.38392 -0.13024,0.42797 -0.0867,0.0536 -0.0867,0.16041 0,0.32231 0.17908,0.33461 0.16501,0.37352 -0.10914,0.30183 -0.17375,-0.0454 -0.28341,0.0454 -0.40281,0.33363 -0.20088,0.48498 -0.38969,0.40563 -0.36909,-0.15512 0.0218,-0.59395 -0.1392,-1.01515 -0.52623,-1.3767 -0.45029,-0.42064 -0.78188,-0.43586 -1.22332,-0.0562 -0.34544,0.29713 -0.35511,0.33261 -0.16828,0.61775 0.10902,0.16638 0.17114,0.41171 0.13805,0.54519 -0.0426,0.17177 0.073,0.328 0.39561,0.53472 0.42163,0.27016 0.45578,0.34038 0.45578,0.93721 0,0.66657 0.1559,0.81516 0.50738,0.48357 0.13702,-0.12926 0.18314,-0.12926 0.23053,0 0.0326,0.0889 0.14167,0.16159 0.24239,0.16159 0.23078,0 0.22939,0.0235 -0.034,0.57571 -0.23463,0.492 -0.16398,0.72105 0.14365,0.46575 0.18982,-0.15755 0.46123,-0.0902 0.46123,0.11453 0,0.0586 -0.11634,0.13699 -0.25854,0.17417 -0.26979,0.0705 -0.33637,0.41508 -0.14013,0.72503 0.0765,0.1208 0.0329,0.26827 -0.13124,0.44451 -0.28218,0.30288 -0.31894,0.73176 -0.0841,0.98144 0.13286,0.14127 0.0984,0.15692 -0.1939,0.088 -0.4096,-0.0966 -0.45131,0.0426 -0.15045,0.50172 0.30694,0.46843 0.0926,0.66278 -0.28347,0.257 -0.41146,-0.44396 -0.74982,-0.37751 -0.80176,0.15746 -0.0328,0.33805 -0.10182,0.41837 -0.38781,0.45139 -0.25095,0.029 -0.35977,0.1241 -0.39055,0.34138 -0.0235,0.16566 -0.15557,0.41411 -0.29357,0.55211 -0.24837,0.24837 -0.25449,0.24758 -0.60369,-0.0778 l -0.35278,-0.32868 -0.0405,0.3906 c -0.0243,0.23458 -0.1147,0.39061 -0.22622,0.39061 -0.10215,0 -0.18572,0.0582 -0.18572,0.12927 0,0.0711 -0.0546,0.12926 -0.12128,0.12926 -0.0667,0 -0.11035,-0.15997 -0.097,-0.35549 0.0206,-0.30157 -0.0314,-0.36187 -0.34283,-0.39752 -0.20193,-0.0231 -0.76769,0.0256 -1.25724,0.10809 l -0.89007,0.15014 0.0782,0.7478 c 0.0673,0.64343 0.0412,0.7847 -0.18628,1.01223 -0.3002,0.3002 -0.24811,0.41526 0.188,0.41526 0.39668,0 0.40417,0.40912 0.0107,0.58811 -0.15997,0.0728 -0.27342,0.21161 -0.25211,0.30849 0.0213,0.0969 0.008,0.25675 -0.03,0.35528 -0.0576,0.15014 -0.13179,0.14653 -0.4582,-0.0223 -0.36011,-0.18622 -0.42605,-0.18272 -0.8749,0.0464 -0.26699,0.13626 -0.59456,0.36842 -0.72793,0.51589 -0.1842,0.20368 -0.29869,0.23806 -0.47626,0.14303 -0.12857,-0.0688 -0.32419,-0.12511 -0.4347,-0.12511 -0.31562,0 -0.72096,0.41588 -0.72096,0.73972 0,0.22599 -0.0734,0.29444 -0.31555,0.29444 -0.17355,0 -0.3515,0.0582 -0.39544,0.12928 -0.0439,0.0711 -0.0268,0.12927 0.0381,0.12927 0.0649,0 0.27495,0.14543 0.46674,0.32317 0.44963,0.41671 0.54483,0.40708 0.63918,-0.0646 0.0427,-0.21329 0.14431,-0.38781 0.22589,-0.38781 0.11096,0 0.11129,0.0447 10e-4,0.17715 -0.0809,0.0974 -0.1607,0.40284 -0.17742,0.67867 -0.0299,0.4929 -0.022,0.50221 0.45659,0.54177 0.36252,0.0299 0.54348,0.12909 0.70801,0.38782 0.12155,0.19115 0.25575,0.37664 0.2982,0.41219 0.0425,0.0356 0.15235,0.33804 0.2442,0.6722 0.0918,0.33416 0.2766,0.70674 0.41056,0.82797 0.27255,0.24666 0.3151,0.57416 0.10225,0.78702 -0.10223,0.10222 -0.0803,0.23434 0.0791,0.47773 0.16008,0.24432 0.1963,0.46507 0.13228,0.8063 -0.0768,0.40928 -0.0377,0.52188 0.30273,0.87314 0.36775,0.37944 0.44699,0.40328 1.34032,0.40328 0.88122,0 0.97089,-0.0259 1.24776,-0.3602 z m 10.53505,-10.68019 c -0.81758,-0.3713 -1.15064,-0.93611 -1.15064,-1.95128 0,-1.01517 0.33306,-1.57998 1.15064,-1.95128 0.70215,-0.31888 1.19468,-0.30728 1.89109,0.0446 0.81032,0.40936 1.15956,0.98363 1.15956,1.90674 0,0.9231 -0.34924,1.49738 -1.15956,1.90673 -0.69641,0.35183 -1.18894,0.36342 -1.89109,0.0446 z m -3.45546,9.85006 c 4.57141,-3.53959 7.53714,-7.34546 8.64221,-11.09035 0.62243,-2.10937 0.55868,-5.60505 -0.13238,-7.25902 l -0.17594,-0.42108 -0.94621,0.26197 c -2.92968,0.81116 -5.69527,2.821 -7.30426,5.30826 -1.4138,2.18551 -2.71832,5.43576 -3.26119,8.12536 -0.43097,2.13521 -0.81015,5.19497 -0.66213,5.34299 0.20317,0.20316 1.73402,1.09328 1.90085,1.10525 0.0832,0.006 0.9558,-0.61205 1.93905,-1.37338 z m 11.67979,1.36715 c 0.81075,-0.89158 1.16056,-1.37359 1.16056,-1.59912 0,-0.25612 -0.0652,-0.32285 -0.31554,-0.32285 -0.17356,0 -0.35202,-0.059 -0.39659,-0.13112 -0.2028,-0.32814 -1.04571,-0.59633 -1.70963,-0.54394 -0.61611,0.0486 -0.66495,0.0752 -0.54615,0.29716 0.0718,0.13409 0.28398,0.32421 0.4716,0.42252 l 0.34114,0.17874 -0.34439,0.29944 c -0.18941,0.1647 -0.34438,0.37809 -0.34438,0.47421 0,0.0961 -0.12473,0.22089 -0.27716,0.27728 -0.38391,0.14202 -0.44442,0.79382 -0.10729,1.15567 0.27577,0.29601 0.33307,0.54326 0.1259,0.54326 -0.17475,0 -0.16387,0.3015 0.0174,0.48279 0.22193,0.22192 0.60657,-0.0847 1.92451,-1.53404 z m -7.70886,1.8997 c 1.13812,-0.76283 2.4059,-1.82956 2.4059,-2.02437 0,-0.0669 -0.14233,-0.086 -0.3163,-0.0423 -0.17398,0.0437 -0.52661,0.01 -0.78364,-0.0748 -0.76785,-0.25342 -0.8928,-0.96047 -0.4513,-2.55367 0.1422,-0.51314 0.25854,-0.99303 0.25854,-1.06643 0,-0.0734 -0.44931,0.30863 -0.99847,0.84895 -0.54915,0.54033 -1.4265,1.30455 -1.94965,1.69829 l -0.95119,0.71588 0.39179,0.4049 c 0.47937,0.49541 0.89642,1.40943 1.00519,2.20297 0.0448,0.32639 0.13966,0.59343 0.21095,0.59343 0.0713,0 0.60147,-0.31626 1.17818,-0.70279 z m -24.87014,-26.17018 c 0,-0.0711 0.0582,-0.16523 0.12927,-0.20917 0.0711,-0.0439 0.12927,-0.0217 0.12927,0.0494 0,0.0711 -0.0582,0.16522 -0.12927,0.20917 -0.0711,0.0439 -0.12927,0.0217 -0.12927,-0.0494 z m 13.57537,3.63663 c 9.8e-4,-0.0533 0.0584,-0.18421 0.12729,-0.29086 0.10133,-0.1568 0.1257,-0.13825 0.12729,0.097 9.8e-4,0.15997 -0.0562,0.29086 -0.12729,0.29086 -0.0711,0 -0.12838,-0.0436 -0.12729,-0.097 z m -12.08876,0.097 c -0.0439,-0.0711 -0.22189,-0.12927 -0.39544,-0.12927 -0.17355,0 -0.31555,-0.0582 -0.31555,-0.12927 0,-0.0711 0.0534,-0.12926 0.11869,-0.12926 0.0653,0 0.20212,-0.032 0.30406,-0.0711 0.10929,-0.0419 0.274,0.0641 0.40136,0.25854 0.1188,0.18131 0.15993,0.32967 0.0914,0.32967 -0.0685,0 -0.16057,-0.0582 -0.20451,-0.12927 z m -7.49768,1.68051 c 0.0439,-0.0711 0.10554,-0.12927 0.13689,-0.12927 0.0314,0 0.057,0.0582 0.057,0.12927 0,0.0711 -0.0616,0.12927 -0.13689,0.12927 -0.0753,0 -0.10095,-0.0582 -0.057,-0.12927 z m 19.72393,0.18313 c 0.006,-0.15059 0.0368,-0.18122 0.0781,-0.0781 0.0373,0.0933 0.0327,0.20482 -0.0101,0.24777 -0.0429,0.043 -0.0735,-0.0334 -0.0679,-0.16966 z m -3.28153,1.54399 c -0.14652,-0.14652 0.046,-0.30515 0.37037,-0.30515 0.19431,0 0.31555,0.0745 0.31555,0.19391 0,0.19348 -0.51944,0.27772 -0.68592,0.11124 z m -11.20695,0.92292 c 0,-0.21747 0.0238,-0.22628 0.31186,-0.11572 0.23666,0.0908 0.1479,0.30963 -0.12559,0.30963 -0.10244,0 -0.18627,-0.0873 -0.18627,-0.19391 z m 4.93187,1.37219 c -0.195,-0.12358 -0.15678,-0.59254 0.045,-0.5526 0.14389,0.0285 0.35073,0.66818 0.21505,0.66504 -0.0472,-9.7e-4 -0.16422,-0.0517 -0.26009,-0.11244 z m -7.25874,0.11383 c 0,-0.30076 0.44235,-1.23065 0.64498,-1.35589 0.0724,-0.0447 0.0976,-0.21685 0.056,-0.38248 -0.0953,-0.37962 0.18421,-0.57871 0.39936,-0.28447 0.0859,0.11751 0.25162,0.21365 0.3682,0.21365 0.11659,0 0.21197,0.0901 0.21197,0.20033 0,0.11018 0.0909,0.37613 0.20203,0.591 0.15047,0.29098 0.16536,0.43486 0.0583,0.56379 -0.0991,0.11945 -0.10165,0.19908 -0.008,0.25688 0.21935,0.13557 0.15544,0.32706 -0.10917,0.32706 -0.13459,0 -0.27617,-0.082 -0.31463,-0.18222 -0.077,-0.20069 -0.69158,-0.11688 -1.22116,0.16655 -0.2546,0.13625 -0.28782,0.12308 -0.28782,-0.1142 z m 10.49029,0.39488 c 0.0284,-0.0853 0.0939,-0.15077 0.14543,-0.14544 0.15457,0.016 0.12464,0.1933 -0.042,0.24885 -0.0853,0.0284 -0.13186,-0.0181 -0.10342,-0.10342 z m -14.7128,0.30802 c -0.0427,-0.11144 -0.0119,-0.26849 0.0687,-0.34903 0.10907,-0.10907 0.14644,-0.0574 0.14644,0.20259 0,0.38894 -0.0968,0.45482 -0.21513,0.14644 z m 9.91041,2.65873 c 0,-0.0711 0.0547,-0.12927 0.12164,-0.12927 0.0669,0 0.1576,0.0582 0.20153,0.12927 0.0439,0.0711 -0.0108,0.12928 -0.12163,0.12928 -0.11085,0 -0.20154,-0.0582 -0.20154,-0.12928 z m -1.93905,0.0723 c 0,-0.32693 0.19005,-0.5462 0.308,-0.35535 0.0943,0.15253 -0.0555,0.67089 -0.19381,0.67089 -0.0628,0 -0.11419,-0.14199 -0.11419,-0.31554 z m -6.9806,3.5473 c 0,-0.0711 0.0616,-0.12926 0.13689,-0.12926 0.0753,0 0.10095,0.0582 0.057,0.12926 -0.0439,0.0711 -0.10554,0.12927 -0.13689,0.12927 -0.0314,0 -0.057,-0.0582 -0.057,-0.12927 z m 7.30578,1.93273 c 0.0969,-0.30541 -0.25439,-0.92616 -0.49315,-0.87133 -0.086,0.0197 -0.39309,-0.22553 -0.68246,-0.54506 -0.50301,-0.55543 -0.52003,-0.60172 -0.38726,-1.05276 0.0764,-0.25949 0.24069,-0.58401 0.36511,-0.72117 0.12442,-0.13716 0.22622,-0.40477 0.22622,-0.59469 0,-0.30686 0.0492,-0.34531 0.44166,-0.34531 0.33094,0 0.50858,-0.0891 0.70856,-0.3555 0.21919,-0.29198 0.28889,-0.32195 0.39006,-0.16776 0.0677,0.10326 0.0983,0.22795 0.0679,0.27709 -0.0304,0.0492 0.0316,0.33556 0.1378,0.63646 0.10616,0.30091 0.19303,0.69518 0.19303,0.87617 0,0.18098 0.0943,0.43327 0.20958,0.56064 0.21733,0.24016 0.15075,0.7072 -0.0804,0.56431 -0.1519,-0.0939 -0.64622,0.98234 -0.64622,1.40693 0,0.29017 -0.21703,0.59685 -0.42238,0.59685 -0.0617,0 -0.0743,-0.11919 -0.028,-0.26487 z m 2.97121,0.65268 c 0.0439,-0.0711 0.13463,-0.12927 0.20153,-0.12927 0.0669,0 0.12164,0.0582 0.12164,0.12927 0,0.0711 -0.0907,0.12926 -0.20153,0.12926 -0.11085,0 -0.16559,-0.0582 -0.12164,-0.12926 z m 0.72119,1.73438 c 0.006,-0.1506 0.0368,-0.18123 0.0781,-0.0781 0.0373,0.0933 0.0327,0.20481 -0.0102,0.24777 -0.0429,0.0429 -0.0735,-0.0334 -0.0679,-0.16967 z m 3.30989,1.15481 c -0.0486,-0.0486 -0.0883,-0.22891 -0.0883,-0.40074 0,-0.35783 0.29734,-0.33806 0.36762,0.0244 0.0495,0.25547 -0.14203,0.51356 -0.27929,0.3763 z m -3.36318,0.12711 c -0.0474,-0.0474 -0.0862,-0.14628 -0.0862,-0.21976 0,-0.081 0.0602,-0.0734 0.15296,0.0194 0.0841,0.0841 0.12292,0.18303 0.0862,0.21976 -0.0367,0.0367 -0.10557,0.028 -0.15296,-0.0194 z m 0.25854,2.1976 c -0.0474,-0.0474 -0.0862,-0.22535 -0.0862,-0.39544 0,-0.17009 -0.0535,-0.27621 -0.11884,-0.23581 -0.20524,0.12684 -0.54335,-0.3339 -0.50221,-0.68436 0.0304,-0.25902 0.14209,-0.36391 0.49178,-0.46184 0.24885,-0.0697 0.52675,-0.21697 0.61756,-0.32729 0.14285,-0.17354 0.16189,-0.17443 0.1412,-0.007 -0.0132,0.10664 0.0188,0.29116 0.0711,0.41002 0.0522,0.11887 0.0391,0.32247 -0.0292,0.45245 -0.0683,0.12998 -0.16517,0.48355 -0.21523,0.78572 -0.0873,0.52732 -0.18435,0.64878 -0.36991,0.46322 z m -0.49562,2.26296 c 0.31739,-0.15365 0.87384,-0.30697 1.23656,-0.34072 0.36271,-0.0338 0.706,-0.14072 0.76286,-0.23772 0.0568,-0.097 0.15816,-0.17636 0.22511,-0.17636 0.0669,0 0.3827,-0.19921 0.70167,-0.44268 0.65022,-0.49633 1.58182,-0.74486 2.58941,-0.6908 0.59186,0.0318 0.64998,0.009 0.68934,-0.26896 0.0465,-0.32853 -0.20086,-0.61195 -0.80682,-0.92443 -0.38392,-0.19798 -0.844,-1.00688 -0.84921,-1.49307 -0.001,-0.14576 -0.0696,-0.33183 -0.15132,-0.41349 -0.1118,-0.11181 -0.0958,-0.22885 0.0646,-0.47376 0.34436,-0.52557 0.26586,-1.00914 -0.27165,-1.67337 -0.6016,-0.74343 -0.87265,-0.79034 -0.7659,-0.13257 0.0746,0.45977 0.0696,0.46622 -0.30222,0.39185 -0.418,-0.0836 -0.90325,-0.50203 -0.90325,-0.77886 0,-0.0979 0.0873,-0.25049 0.1939,-0.339 0.26727,-0.22181 0.24274,-0.38781 -0.0573,-0.38781 -0.13816,0 -0.33805,0.124 -0.44419,0.27553 -0.32467,0.46352 -0.69349,0.15582 -0.60606,-0.50561 0.025,-0.18872 -0.74417,-0.54554 -1.17589,-0.54554 -0.34869,0 -1.29618,-0.63108 -1.1945,-0.7956 0.0399,-0.0645 0.26339,-0.0814 0.49676,-0.0376 0.32824,0.0616 0.44338,0.0299 0.50853,-0.13986 0.0684,-0.17833 0.12028,-0.18954 0.2766,-0.0598 0.1058,0.0878 0.19237,0.23979 0.19237,0.33773 0,0.31074 0.19166,0.19311 0.44162,-0.27106 0.29587,-0.54939 0.13024,-0.83812 -0.48977,-0.85377 -0.22236,-0.006 -0.32915,-0.0404 -0.23731,-0.0772 0.12822,-0.0514 0.13205,-0.10908 0.0165,-0.24834 -0.0828,-0.0997 -0.21609,-0.18283 -0.29625,-0.18467 -0.0802,-0.002 -0.2515,-0.24906 -0.38072,-0.54939 -0.12922,-0.30034 -0.28919,-0.64708 -0.35549,-0.77054 -0.163,-0.30353 -0.15821,-0.31724 0.138,-0.3947 0.31062,-0.0812 0.33585,-0.43848 0.053,-0.75099 -0.19074,-0.21075 -0.17447,-0.24343 0.22622,-0.45452 0.23745,-0.12508 0.57945,-0.21344 0.76,-0.19633 0.26145,0.0248 0.37193,-0.0605 0.54281,-0.41882 0.1829,-0.38354 0.26067,-0.437 0.52714,-0.36238 0.17192,0.0481 0.47091,0.2766 0.66443,0.50766 0.33918,0.40502 0.87148,0.56327 1.0303,0.3063 0.10697,-0.17311 0.71202,-0.25857 0.68183,-0.0963 -0.0529,0.28414 0.51453,0.21338 0.86058,-0.10732 0.42907,-0.39765 0.85863,-0.43666 0.85863,-0.078 0,0.36486 0.22518,0.44703 0.58285,0.21268 0.35343,-0.23158 0.70985,-0.26963 0.70985,-0.0758 0,0.18965 0.46189,0.15763 0.6289,-0.0436 0.0789,-0.0951 0.46961,-0.25111 0.86824,-0.34674 0.55105,-0.13219 0.75208,-0.24568 0.83869,-0.47348 0.0626,-0.16479 0.21715,-0.30127 0.34333,-0.30329 0.12618,-0.002 0.4721,-0.22015 0.7687,-0.48476 0.59329,-0.52928 0.84591,-1.1399 0.52289,-1.26386 -0.1162,-0.0446 -0.16723,-0.17401 -0.12791,-0.32438 0.0573,-0.21924 -0.004,-0.25019 -0.49991,-0.25019 -0.48262,0 -0.65517,-0.0804 -1.17927,-0.5494 -0.66725,-0.59712 -0.74281,-0.83274 -0.36954,-1.15235 0.13359,-0.11438 0.26726,-0.28112 0.29707,-0.37054 0.0645,-0.19361 1.18089,0.0282 1.89276,0.37604 0.37311,0.18232 0.41949,0.25777 0.35595,0.57903 -0.0683,0.34509 -0.0508,0.36381 0.26485,0.28458 0.22943,-0.0576 0.41451,-0.0155 0.57645,0.13105 0.23634,0.21389 0.71879,0.16457 0.58042,-0.0593 -0.0396,-0.064 0.0586,-0.15006 0.21802,-0.1912 0.15949,-0.0412 0.38709,-0.24752 0.5058,-0.45861 l 0.21583,-0.38379 -0.51067,-0.26617 c -0.28087,-0.1464 -0.65695,-0.26618 -0.83574,-0.26618 -0.17879,0 -0.47085,-0.14578 -0.64903,-0.32396 -0.22161,-0.22161 -0.41376,-0.30207 -0.60816,-0.25466 -0.21587,0.0526 -0.32076,-0.0107 -0.43631,-0.26346 -0.13599,-0.29747 -0.12717,-0.32484 0.0832,-0.25809 0.33709,0.10699 1.30258,-0.80375 1.03291,-0.97434 -0.10358,-0.0655 -0.27832,-0.12002 -0.38831,-0.1211 -0.10999,-0.001 -0.42994,-0.23985 -0.71099,-0.53055 -1.71185,-1.77064 -4.69908,-3.80517 -6.54137,-4.45517 -0.48098,-0.1697 -0.48882,-0.167 -0.86011,0.29582 l -0.37469,0.46707 -0.42133,-0.30001 c -0.38668,-0.27534 -0.47305,-0.28807 -1.05056,-0.15476 -1.31261,0.30299 -1.46456,0.42031 -1.7161,1.32506 -0.21957,0.78973 -0.21933,0.82779 0.006,0.99703 0.16845,0.12639 0.17976,0.16425 0.0402,0.13439 -0.37126,-0.0794 -1.16318,0.50743 -1.24642,0.92363 -0.0867,0.4335 -0.41975,0.52491 -0.6967,0.19121 -0.10982,-0.13232 -0.20875,-0.1561 -0.29417,-0.0707 -0.0852,0.0852 -0.20968,0.0854 -0.3683,4.8e-4 -0.18658,-0.0999 -0.30671,-0.0611 -0.54282,0.17498 -0.16677,0.16677 -0.32978,0.38292 -0.36226,0.48035 -0.0874,0.26211 -0.36696,0.0336 -0.36696,-0.29996 0,-0.15773 0.0959,-0.42369 0.2131,-0.59102 0.11721,-0.16733 0.20837,-0.47057 0.20259,-0.67387 -0.007,-0.24087 0.0871,-0.438 0.26973,-0.56591 0.23559,-0.16501 0.25564,-0.2357 0.12586,-0.44352 -0.12031,-0.19264 -0.11812,-0.37078 0.01,-0.80681 0.13928,-0.4743 0.21235,-0.55601 0.4795,-0.53616 0.63188,0.0469 1.67251,-0.54314 1.67251,-0.94836 0,-0.357 -2.69737,0.27578 -4.25215,0.99751 -2.34715,1.08955 -4.46384,3.34975 -5.45183,5.82145 -0.75139,1.87982 -1.24721,4.92946 -1.10542,6.79912 0.21242,2.80105 1.29339,5.79144 3.03353,8.3919 0.86118,1.28696 2.796,3.58065 4.04391,4.79397 0.76347,0.74231 0.84184,0.78684 1.07716,0.61195 0.21917,-0.16289 0.23395,-0.24113 0.10838,-0.57378 -0.0941,-0.24924 -0.10043,-0.41296 -0.018,-0.46391 0.13851,-0.0856 0.75461,0.43263 0.75461,0.63473 0,0.1684 0.62313,0.7356 0.80814,0.7356 0.10807,0 0.10626,0.0422 -0.007,0.15512 -0.27625,0.27625 -0.16675,0.33075 0.43766,0.21783 0.46292,-0.0865 0.63487,-0.0687 0.78486,0.0813 0.26015,0.26016 0.50575,0.24209 1.18614,-0.0873 z m 10.23398,15.10885 c -0.4581,-0.14122 -1.30953,-0.95143 -5.17276,-4.92229 -1.63332,-1.67883 -1.76357,-1.78342 -2.06638,-1.65926 -3.31092,1.35756 -4.71638,1.70587 -6.88327,1.70587 -4.63815,0 -7.54165,-2.70964 -8.31113,-7.75622 -0.40883,-2.68135 -0.0906,-6.51331 0.71381,-8.59647 0.12292,-0.31831 0.17033,-0.35107 0.26451,-0.18278 0.0738,0.13189 0.0285,0.48975 -0.1269,1.00312 -0.4608,1.52193 -0.5813,2.60972 -0.57499,5.19073 0.006,2.29962 0.0358,2.63104 0.3439,3.77777 1.11686,4.15687 3.63644,6.1664 7.74078,6.1738 5.55046,0.01 11.82338,-3.96708 16.88564,-10.70561 0.84803,-1.12885 0.9175,-1.26527 0.71859,-1.41124 -0.1211,-0.0889 -0.2885,-0.16159 -0.37199,-0.16159 -0.0835,0 -0.52189,0.45083 -0.97422,1.00184 -4.93055,6.00634 -11.7232,9.6585 -17.56876,9.4461 -1.24961,-0.0454 -1.42224,-0.0842 -2.1751,-0.48887 -0.44977,-0.24176 -1.02219,-0.67633 -1.27203,-0.96571 -1.42918,-1.65538 -2.12107,-4.67712 -2.1036,-9.18726 0.004,-0.99538 0.0473,-2.03334 0.0965,-2.30658 l 0.0895,-0.49679 1.63887,2.04804 c 0.90138,1.12641 2.16259,2.56636 2.80269,3.19987 l 1.16382,1.15184 0.34174,-0.22392 0.34175,-0.22392 -1.59319,-1.63891 c -3.20246,-3.29436 -4.81802,-5.66305 -6.00222,-8.80031 -0.59165,-1.56744 -1.07838,-3.90987 -1.08258,-5.21002 -0.004,-1.14442 0.48408,-4.24227 0.83932,-5.33054 1.37012,-4.19724 4.2828,-6.96673 8.46428,-8.04819 1.7126,-0.44294 4.52914,-0.55448 6.07981,-0.24079 2.40764,0.48705 5.08287,2.01272 7.72125,4.40336 l 0.80789,0.73204 0.31063,-0.23703 c 0.17084,-0.13036 0.67986,-0.56455 1.13115,-0.96486 1.24287,-1.10244 3.14161,-2.39769 4.44011,-3.02887 1.63692,-0.79568 3.10955,-1.12569 5.04154,-1.12979 6.67191,-0.0141 11.51682,3.95138 12.68243,10.38048 0.98124,5.41222 -0.48891,10.24132 -4.62414,15.18926 -0.53479,0.63989 -4.61777,4.94459 -9.0733,9.56601 -8.43034,8.74421 -8.84923,9.13216 -9.82615,9.10036 -0.22295,-0.007 -0.60896,-0.076 -0.85781,-0.15267 z"
         style="fill:#d4aa00;stroke-width:0.12927034"
         id="path917-8" />
      <path
         inkscape:export-ydpi="96"
         inkscape:export-xdpi="96"
         inkscape:connector-curvature="0"
         style="display:inline;fill:#a5a5a5;fill-opacity:1;stroke-width:0.12927034"
         d="m 131.72458,136.55815 0.15405,-0.0482 0.16053,-0.0386 0.16975,-0.0292 0.1817,-0.02 0.19639,-0.0111 0.2138,-0.002 0.49081,0.0205 1.00219,0.0687 0.15993,-1.18239 0.0865,-0.55577 0.11725,-0.63917 0.13262,-0.64358 0.13262,-0.56898 0.21826,-0.88672 0.0908,-0.41155 -0.004,-0.003 -0.0128,0.005 -0.0492,0.0343 -0.18062,0.15297 -0.26732,0.24511 -0.32642,0.31273 -0.25856,0.24413 -0.24503,0.21434 -0.23203,0.18462 -0.21954,0.15497 -0.20756,0.12539 -0.19611,0.0959 -0.18518,0.0664 -0.17476,0.0371 -0.16485,0.008 -0.0789,-0.007 -0.0766,-0.0144 -0.0744,-0.0217 -0.0722,-0.029 -0.13826,-0.0798 -0.13043,-0.1088 -0.12312,-0.13777 -0.11632,-0.16666 -0.11004,-0.1955 -0.15471,-0.2926 -0.0525,-0.0811 -0.0413,-0.0409 -0.0177,-0.006 -0.0165,0.003 -0.0312,0.0327 -0.0322,0.0659 -0.0373,0.0968 -0.0851,0.28241 -0.0862,0.37909 -0.0834,0.44905 -0.0768,0.49225 -0.0664,0.50872 -0.0522,0.49844 -0.0341,0.4614 -0.0122,0.39764 0.007,0.51501 0.0112,0.16551 0.0189,0.11371 0.0284,0.0691 0.0184,0.02 0.0214,0.0116 0.0531,0.001 0.0682,-0.0219 0.79106,-0.28979 v 0"
         id="path4963-4" />
      <path
         inkscape:export-ydpi="96"
         inkscape:export-xdpi="96"
         inkscape:connector-curvature="0"
         style="display:inline;fill:#a5a5a5;fill-opacity:1;stroke-width:0.12927034"
         d="m 139.32639,139.14766 0.83826,-0.66672 0.80025,-0.67248 0.76187,-0.67775 0.36643,-0.34071 0.35669,-0.34186 0.34691,-0.34293 0.33708,-0.34395 0.32721,-0.34491 0.31729,-0.34582 0.30731,-0.34665 0.2973,-0.34744 0.28724,-0.34816 0.27713,-0.34882 0.26698,-0.34942 0.25677,-0.34996 0.24653,-0.35045 0.23623,-0.35086 0.22588,-0.35123 0.2155,-0.35153 0.20507,-0.35177 0.19458,-0.35195 0.18405,-0.35208 0.17348,-0.35213 0.16285,-0.35214 0.15219,-0.35209 0.14147,-0.35196 0.13071,-0.35179 0.1199,-0.35155 0.10905,-0.35125 0.10867,-0.41096 0.0927,-0.43873 0.0768,-0.46176 0.0609,-0.48007 0.0452,-0.49365 0.0296,-0.50249 0.014,-0.50662 -0.001,-0.506 -0.0169,-0.50067 -0.0322,-0.49061 -0.0474,-0.47581 -0.0625,-0.45628 -0.0776,-0.43204 -0.0925,-0.40306 -0.10738,-0.36935 -0.12213,-0.33092 -0.17594,-0.42108 -0.94622,0.26197 -0.54715,0.16597 -0.54185,0.193 -0.5351,0.21898 -0.52689,0.24391 -0.51723,0.26777 -0.50611,0.29059 -0.49354,0.31234 -0.47952,0.33304 -0.46405,0.35268 -0.44711,0.37127 -0.42873,0.38879 -0.40889,0.40527 -0.3876,0.42068 -0.36485,0.43504 -0.34066,0.44835 -0.31499,0.46059 -0.26365,0.42186 -0.26013,0.44444 -0.25566,0.46463 -0.25023,0.48244 -0.24384,0.49787 -0.23651,0.51092 -0.22821,0.5216 -0.21896,0.52988 -0.20875,0.53579 -0.1976,0.53931 -0.18547,0.54046 -0.17241,0.53923 -0.15837,0.53561 -0.14339,0.52961 -0.12745,0.52123 -0.11055,0.51048 -0.15827,0.83655 -0.14783,0.87826 -0.13183,0.87504 -0.11026,0.82683 -0.0831,0.73369 -0.0504,0.59559 -0.0112,0.23195 -9.3e-4,0.18057 0.01,0.12356 0.009,0.0387 0.0123,0.0223 0.13316,0.10533 0.22609,0.15139 0.28747,0.17912 0.31732,0.18849 0.31563,0.17952 0.28236,0.15223 0.21758,0.10658 0.0746,0.0304 0.0466,0.0121 0.0669,-0.0261 0.13293,-0.079 0.43218,-0.29394 0.60097,-0.43779 0.7061,-0.53661 v 0"
         id="path4955-7" />
      <path
         inkscape:export-ydpi="96"
         inkscape:export-xdpi="96"
         inkscape:connector-curvature="0"
         style="display:inline;fill:#a5a5a5;fill-opacity:1;stroke-width:0.12927034"
         d="m 143.29704,142.41451 0.43015,-0.29801 0.42592,-0.31272 0.40533,-0.31366 0.36836,-0.3008 0.315,-0.27418 0.24528,-0.23378 0.0914,-0.0974 0.0678,-0.0822 0.0422,-0.0652 0.0145,-0.0465 -0.006,-0.0228 -0.0185,-0.0181 -0.0292,-0.0133 -0.0387,-0.008 -0.10057,-7.9e-4 -0.12282,0.0212 -0.0731,0.0128 -0.0866,0.006 -0.20097,-0.008 -0.21655,-0.032 -0.20641,-0.0536 -0.13646,-0.0529 -0.1215,-0.0642 -0.10666,-0.0761 -0.0919,-0.0886 -0.0773,-0.10181 -0.0628,-0.1156 -0.0484,-0.13003 -0.0341,-0.1451 -0.0199,-0.16081 -0.006,-0.17713 0.008,-0.19411 0.0219,-0.2117 0.0356,-0.22994 0.0492,-0.24881 0.0627,-0.26831 0.0761,-0.28845 0.18258,-0.69812 0.0556,-0.24288 0.0204,-0.12543 -0.005,-0.008 -0.0152,0.002 -0.0584,0.0325 -0.21451,0.16863 -0.31747,0.28371 -0.38768,0.37092 -0.46275,0.43793 -0.52184,0.46618 -0.51697,0.43869 -0.44811,0.35548 -0.95118,0.71589 0.39179,0.40489 0.17636,0.20435 0.16764,0.23728 0.15603,0.26388 0.14154,0.28418 0.12417,0.29815 0.10391,0.30581 0.0808,0.30715 0.0548,0.30217 0.0418,0.23042 0.0537,0.1887 0.0291,0.0726 0.0295,0.0549 0.0291,0.0347 0.0277,0.0121 0.0474,-0.0143 0.0856,-0.0411 0.26649,-0.151 0.36124,-0.22346 0.41737,-0.27289 v -1e-5"
         id="path4951-8" />
      <path
         inkscape:export-ydpi="96"
         inkscape:export-xdpi="96"
         style="display:inline;opacity:1;fill:#a5a5a5;fill-opacity:1;stroke:none;stroke-width:0.1;stroke-miterlimit:4;stroke-dasharray:none;stroke-opacity:1"
         d="m 111.68067,136.68677 -0.2285,0.85026 -0.15728,0.55413 -0.12788,0.53598 -0.10099,0.54044 -0.0766,0.56749 -0.0547,0.61714 -0.0353,0.68937 -0.0184,0.7842 -0.004,0.90163 0.0129,1.39922 0.0172,0.50441 0.0284,0.41774 0.0426,0.36371 0.0597,0.34227 0.0799,0.35346 0.103,0.39726 0.10882,0.38341 0.11707,0.37087 0.12537,0.35833 0.13368,0.34584 0.14204,0.33336 0.15042,0.3209 0.15885,0.30849 0.1673,0.29609 0.17579,0.28372 0.1843,0.27138 0.19286,0.25906 0.20145,0.24677 0.21006,0.23451 0.21872,0.22227 0.2274,0.21006 0.23613,0.19788 0.24487,0.18572 0.25366,0.17359 0.26248,0.1615 0.27133,0.14941 0.28022,0.13736 0.28914,0.12533 0.29808,0.11335 0.30707,0.10137 0.31609,0.0894 0.32514,0.0775 0.33423,0.0656 0.34334,0.0538 0.3525,0.0419 0.36167,0.0301 0.3709,0.0183 0.38015,0.007 0.52241,-0.0107 0.52629,-0.0338 0.52982,-0.0568 0.53299,-0.0795 0.53581,-0.10192 0.53828,-0.12415 0.54038,-0.14617 0.54214,-0.16796 0.54354,-0.18953 0.54459,-0.21087 0.54528,-0.23198 0.54562,-0.25289 0.54561,-0.27355 0.54524,-0.294 0.54452,-0.31421 0.54344,-0.33422 0.54201,-0.35398 0.54023,-0.37353 0.53809,-0.39285 0.5356,-0.41195 0.53275,-0.43082 0.52955,-0.44948 0.52599,-0.46789 0.52209,-0.4861 0.51782,-0.50407 0.51321,-0.52182 0.50824,-0.53935 0.50291,-0.55665 0.49724,-0.57372 0.4912,-0.59058 0.48482,-0.60721 0.47808,-0.62361 0.49797,-0.67622 0.15442,-0.2279 0.0994,-0.1701 0.0503,-0.12402 0.009,-0.0484 -0.001,-0.0413 -0.0107,-0.0356 -0.0192,-0.0315 -0.061,-0.0563 -0.0975,-0.0627 -0.10266,-0.0513 -0.0956,-0.0346 -0.0763,-0.0127 -0.0473,0.0204 -0.0765,0.0586 -0.22492,0.21512 -0.29408,0.31843 -0.33127,0.38894 -0.46761,0.55615 -0.47801,0.54209 -0.48789,0.52774 -0.49726,0.51311 -0.50611,0.49822 -0.51445,0.48304 -0.52228,0.46759 -0.52959,0.45186 -0.53638,0.43586 -0.54267,0.41957 -0.54843,0.40302 -0.55369,0.38618 -0.55842,0.36907 -0.56265,0.35167 -0.56636,0.33401 -0.56955,0.31608 -0.57224,0.29785 -0.5744,0.27936 -0.57605,0.26058 -0.57719,0.24153 -0.57781,0.22221 -0.57792,0.20261 -0.57751,0.18273 -0.5766,0.16257 -0.57516,0.14214 -0.57321,0.12142 -0.57075,0.10045 -0.56776,0.0792 -0.56428,0.0576 -0.56027,0.0358 -0.55574,0.0137 -0.55071,-0.009 -0.42136,-0.0175 -0.33976,-0.0213 -0.27768,-0.0294 -0.23497,-0.0419 -0.21169,-0.0587 -0.20782,-0.0799 -0.22339,-0.10545 -0.25835,-0.13535 -0.17354,-0.099 -0.17979,-0.1131 -0.18084,-0.12325 -0.17668,-0.12943 -0.16732,-0.13166 -0.15273,-0.12994 -0.13293,-0.12427 -0.10793,-0.11465 -0.13183,-0.1592 -0.12751,-0.16723 -0.12321,-0.17528 -0.11889,-0.18335 -0.11461,-0.19146 -0.1103,-0.19956 -0.20775,-0.42359 -0.19064,-0.45633 -0.17356,-0.48926 -0.15653,-0.52235 -0.13954,-0.55562 -0.12258,-0.58908 -0.10567,-0.62272 -0.0888,-0.65652 -0.072,-0.69051 -0.0552,-0.72468 -0.0384,-0.75902 -0.0217,-0.79354 -0.005,-0.82825 0.01,-0.74186 0.0215,-0.6821 0.03,-0.5467 0.0172,-0.19893 0.0181,-0.13673 0.0713,-0.39635 -0.58742,-0.8172"
         id="path5068"
         inkscape:connector-curvature="0"
         sodipodi:nodetypes="cccccccscccccccc" />
      <path
         inkscape:export-ydpi="96"
         inkscape:export-xdpi="96"
         inkscape:connector-curvature="0"
         id="path4242"
         d="m 142.78208,129.29762 c -0.81758,-0.3713 -1.15064,-0.93611 -1.15064,-1.95128 0,-1.01517 0.33306,-1.57998 1.15064,-1.95128 0.70215,-0.31888 1.19468,-0.30728 1.89109,0.0446 0.81032,0.40936 1.15956,0.98363 1.15956,1.90674 0,0.9231 -0.34924,1.49738 -1.15956,1.90673 -0.69641,0.35183 -1.18894,0.36343 -1.89109,0.0446 z"
         style="fill:#d4aa00;stroke-width:0.12927034" />
    </g>
  </g>
</svg>
